<svg xmlns="http://www.w3.org/2000/svg" width="2400" height="2400" viewBox="0 0 2400 2400" version="1.1">
	<path d="M 828 784 L 828 808 868 808 L 908 808 908 914.500 L 908 1021 934.500 1021 L 961 1021 961 914.500 L 961 808 1001.500 808 L 1042 808 1042 784 L 1042 760 935 760 L 828 760 828 784 M 1055 890.500 L 1055 1021 1081.500 1021 L 1108 1021 1108 963 L 1108 905 1160 905 L 1212 905 1212 963 L 1212 1021 1238.500 1021 L 1265 1021 1265 890.500 L 1265 760 1238.500 760 L 1212 760 1212 810.500 L 1212 861 1160 861 L 1108 861 1108 810.500 L 1108 760 1081.500 760 L 1055 760 1055 890.500 M 1295.672 760.662 C 1295.302 761.031, 1295 819.758, 1295 891.167 L 1295 1021 1390.520 1021 L 1486.040 1021 1485.770 999.750 L 1485.500 978.500 1416.737 978.243 L 1347.974 977.986 1348.237 942.743 L 1348.500 907.500 1408.250 907.242 L 1468 906.984 1468 884 L 1468 861.016 1408.250 860.758 L 1348.500 860.500 1348.233 834.257 L 1347.967 808.014 1416.733 807.757 L 1485.500 807.500 1485.500 784 L 1485.500 760.500 1390.922 760.245 C 1338.904 760.105, 1296.041 760.292, 1295.672 760.662 M 1522.461 761.250 C 1522.200 761.938, 1522.101 821.450, 1522.243 893.500 L 1522.500 1024.500 1552.500 1025.101 C 1584.977 1025.751, 1598.487 1027.090, 1623.441 1032.132 C 1672.731 1042.091, 1716.092 1062.629, 1757.500 1095.630 C 1770.036 1105.621, 1796.945 1132.141, 1808.101 1145.500 C 1846.277 1191.215, 1869.128 1238.458, 1879.928 1294 C 1885.585 1323.088, 1885.359 1316.500, 1885.731 1463.250 L 1886.074 1599 2008.089 1599 L 2130.104 1599 2129.727 1462.250 C 2129.321 1315.540, 2129.414 1318.468, 2123.947 1279 C 2110.037 1178.559, 2070.919 1085.587, 2008.411 1004.404 C 1948.071 926.035, 1873.045 863.076, 1791.125 822.065 C 1717.066 784.988, 1640.608 765.462, 1552.103 761.023 C 1525.814 759.704, 1523.042 759.726, 1522.461 761.250 M 635.861 1042.459 C 607.531 1046.507, 585 1056.855, 568.428 1073.428 C 542.912 1098.943, 531.339 1139.143, 534.082 1192.729 C 535.273 1216.003, 538.929 1233.994, 546.115 1251.944 C 555.550 1275.514, 574.952 1296.177, 597.372 1306.536 C 633.569 1323.260, 691.727 1322.689, 726.500 1305.268 C 750.661 1293.164, 768.261 1271.938, 777.825 1243.370 C 788.455 1211.617, 790.040 1163.079, 781.577 1128.429 C 769.888 1080.565, 740.292 1052.355, 692.455 1043.477 C 680.192 1041.202, 648.634 1040.634, 635.861 1042.459 M 297 1177.984 L 297 1308 321.995 1308 L 346.989 1308 347.245 1216.991 L 347.500 1125.982 400.500 1216.964 L 453.500 1307.946 481.750 1307.973 L 510 1308 510 1178 L 510 1048 483.505 1048 L 457.010 1048 456.755 1139.303 L 456.500 1230.605 404.992 1139.553 L 353.484 1048.500 325.242 1048.234 L 297 1047.969 297 1177.984 M 814 1178 L 814 1308 841 1308 L 868 1308 868 1258.436 L 868 1208.872 906.250 1209.205 C 943.536 1209.530, 944.646 1209.597, 950.299 1211.860 C 961.653 1216.403, 960.507 1212.856, 965.523 1259 C 967.945 1281.275, 970.195 1301.412, 970.524 1303.750 L 971.123 1308 1001.061 1308 L 1031 1308 1031 1304.958 C 1031 1303.285, 1030.112 1300.964, 1029.028 1299.799 C 1024.258 1294.680, 1022.327 1283.681, 1021.056 1254.407 C 1019.999 1230.047, 1018.432 1221.686, 1012.767 1210.178 C 1009.019 1202.563, 999.672 1192.064, 993.333 1188.350 C 990.950 1186.953, 989 1185.668, 989 1185.495 C 989 1185.322, 992.283 1183.379, 996.296 1181.176 C 1010.685 1173.280, 1019.730 1162.579, 1024.696 1147.578 C 1027.171 1140.101, 1027.375 1138.197, 1027.434 1122 C 1027.485 1108.003, 1027.134 1103.199, 1025.682 1098 C 1019.193 1074.763, 1003.899 1059.597, 979.963 1052.663 C 965.151 1048.372, 957.585 1048.006, 883.750 1048.003 L 814 1048 814 1178 M 1042 1071.500 L 1042 1095 1082 1095 L 1122 1095 1122 1201.500 L 1122 1308 1148.500 1308 L 1175 1308 1175 1201.500 L 1175 1095 1215 1095 L 1255 1095 1255 1071.500 L 1255 1048 1148.500 1048 L 1042 1048 1042 1071.500 M 1275 1178 L 1275 1308 1302 1308 L 1329 1308 1329 1249.491 L 1329 1190.982 1380.750 1191.241 L 1432.500 1191.500 1432.758 1249.750 L 1433.016 1308 1459.512 1308 L 1486.007 1308 1485.754 1178.250 L 1485.500 1048.500 1459.250 1048.233 L 1433 1047.967 1433 1097.983 L 1433 1148 1381 1148 L 1329 1148 1329 1098 L 1329 1048 1302 1048 L 1275 1048 1275 1178 M 1522.246 1179.607 L 1522.500 1311.500 1555 1312.068 C 1590.665 1312.692, 1593.901 1313.154, 1610.257 1319.963 C 1635.724 1330.565, 1659.184 1355.721, 1667.948 1381.824 C 1672.796 1396.264, 1672.988 1400.881, 1672.994 1503.250 L 1673 1599 1768.047 1599 L 1863.094 1599 1862.719 1465.250 C 1862.320 1322.851, 1862.450 1326.936, 1857.463 1300.072 C 1847.971 1248.932, 1826.401 1203.581, 1791.556 1161.500 C 1781.618 1149.498, 1754.733 1122.846, 1746.632 1116.964 C 1716.705 1095.238, 1682.560 1075.854, 1658.733 1067.064 C 1623.970 1054.240, 1594.757 1049.206, 1549.746 1048.284 L 1521.993 1047.715 1522.246 1179.607 M 649.679 1089.011 C 619.312 1092.740, 601.068 1110.978, 593.674 1144.995 C 590.831 1158.079, 590.621 1196.515, 593.314 1211 C 599.152 1242.400, 612.939 1260.886, 636.343 1268.693 C 643.894 1271.211, 645.726 1271.414, 661 1271.426 C 673.827 1271.435, 678.947 1271.038, 684 1269.641 C 695.440 1266.480, 702.870 1262.204, 711.112 1254.040 C 727.062 1238.240, 734.008 1215.165, 733.994 1178.026 C 733.975 1127.293, 718.144 1099.821, 683.910 1091.116 C 674.981 1088.845, 659.022 1087.864, 649.679 1089.011 M 868 1130.039 L 868 1165.199 905.750 1164.766 C 940.971 1164.362, 943.938 1164.189, 950.042 1162.190 C 966.894 1156.672, 974.181 1146.321, 974.109 1128.005 C 974.072 1118.461, 973.209 1114.738, 969.609 1108.596 C 966.846 1103.882, 961.781 1099.973, 955 1097.323 C 951.022 1095.769, 945.716 1095.525, 909.250 1095.222 L 868 1094.879 868 1130.039 M 1140 1330.477 C 1122.233 1333.492, 1104.891 1341.091, 1089.838 1352.460 C 1066.034 1370.437, 1051.118 1397.135, 1044.283 1434 C 1041.799 1447.399, 1041.801 1487.770, 1044.287 1503.622 C 1051.217 1547.807, 1068.372 1576.141, 1098 1592.335 C 1114.073 1601.121, 1133.836 1605.315, 1159 1605.282 C 1203.186 1605.225, 1234.255 1591.091, 1253.933 1562.095 C 1262.083 1550.086, 1269.638 1531.914, 1273.408 1515.250 L 1274.823 1509 1248.493 1509 L 1222.163 1509 1220.068 1515.296 C 1215.228 1529.840, 1204.947 1541.980, 1191.908 1548.546 C 1182.477 1553.296, 1174.550 1554.970, 1161.500 1554.970 C 1141.976 1554.970, 1130.904 1550.906, 1119.412 1539.522 C 1114.327 1534.483, 1111.287 1530.381, 1108.652 1525 C 1093.706 1494.476, 1095.051 1430.613, 1111.242 1402.021 C 1115.383 1394.707, 1125.430 1384.910, 1132.117 1381.664 C 1145.527 1375.155, 1165.820 1373.477, 1179.542 1377.742 C 1195.447 1382.686, 1208.530 1395.152, 1218.381 1414.750 L 1222.025 1422 1248.558 1422 L 1275.091 1422 1274.433 1418.250 C 1268.680 1385.451, 1258.074 1367.173, 1236.039 1352.081 C 1219.188 1340.540, 1199.431 1332.557, 1181.566 1330.072 C 1171.432 1328.663, 1149.432 1328.877, 1140 1330.477 M 651 1467 L 651 1599 677.500 1599 L 704 1599 704 1544 L 704 1489 762.500 1489 L 821 1489 821 1466 L 821 1443 762.500 1443 L 704 1443 704 1412.500 L 704 1382 770.500 1382 L 837 1382 837 1358.500 L 837 1335 744 1335 L 651 1335 651 1467 M 851.676 1464.736 C 826.520 1536.106, 805.675 1595.513, 805.353 1596.750 L 804.767 1599 832.771 1599 L 860.776 1599 866.987 1581.750 C 870.403 1572.263, 875.002 1559.433, 877.206 1553.241 L 881.215 1541.981 929.753 1542.241 L 978.290 1542.500 985.168 1567 C 988.951 1580.475, 992.503 1593.188, 993.062 1595.250 L 994.077 1599 1022.539 1599 C 1038.192 1599, 1050.996 1598.662, 1050.992 1598.250 C 1050.987 1597.838, 1030.792 1538.550, 1006.112 1466.500 L 961.241 1335.500 929.328 1335.236 L 897.414 1334.973 851.676 1464.736 M 1295 1467 L 1295 1599 1390.500 1599 L 1486 1599 1486 1575.500 L 1486 1552 1417 1552 L 1348 1552 1348 1517 L 1348 1482 1408 1482 L 1468 1482 1468 1460.500 L 1468 1439 1408 1439 L 1348 1439 1348 1410.507 L 1348 1382.014 1416.750 1381.757 L 1485.500 1381.500 1485.768 1358.250 L 1486.037 1335 1390.518 1335 L 1295 1335 1295 1467 M 1522 1466.913 L 1522 1599 1586.046 1599 L 1650.092 1599 1649.766 1501.250 C 1649.440 1403.627, 1649.437 1403.490, 1647.206 1395.500 C 1640.798 1372.556, 1626.836 1354.882, 1606.961 1344.559 C 1591.042 1336.290, 1587.794 1335.733, 1552.750 1335.250 L 1522 1334.826 1522 1466.913 M 911.564 1446.303 C 902.800 1473.911, 895.439 1497.063, 895.207 1497.750 C 894.876 1498.733, 901.871 1499, 928 1499 C 954.157 1499, 961.113 1498.734, 960.740 1497.750 C 960.479 1497.063, 953.186 1474.225, 944.533 1447 C 935.879 1419.775, 928.507 1397.186, 928.150 1396.803 C 927.792 1396.419, 920.329 1418.694, 911.564 1446.303 M 541.951 1530.304 C 532.699 1532.917, 527.578 1537.369, 523.319 1546.503 C 520.725 1552.066, 520.522 1553.413, 520.511 1565.099 C 520.500 1577.533, 520.546 1577.787, 524 1584.561 C 530.284 1596.884, 540.649 1602.513, 557 1602.482 C 565.166 1602.466, 567.303 1602.090, 572.218 1599.802 C 579.758 1596.292, 586.959 1589.417, 590.574 1582.278 C 593.304 1576.887, 593.500 1575.730, 593.500 1565 C 593.500 1554.518, 593.260 1553.012, 590.790 1547.987 C 587.435 1541.164, 581.300 1534.847, 575.163 1531.897 C 571.297 1530.039, 568.449 1529.601, 558.500 1529.337 C 550.808 1529.133, 544.867 1529.481, 541.951 1530.304 M 543 1537.954 C 533.288 1541.290, 528.365 1548.972, 527.256 1562.521 C 526.122 1576.367, 531.278 1587.303, 541.365 1592.445 C 546.587 1595.106, 548.233 1595.438, 556.365 1595.467 C 564.376 1595.496, 566.199 1595.157, 571.182 1592.710 C 582.191 1587.303, 587.426 1577.535, 586.836 1563.500 C 586.057 1544.962, 575.966 1535.947, 556.091 1536.033 C 551.335 1536.053, 546.446 1536.771, 543 1537.954 M 544.200 1547.200 C 543.369 1548.031, 543 1553.217, 543 1564.078 C 543 1580.596, 543.535 1582.616, 547.702 1581.823 C 549.164 1581.544, 549.556 1580.313, 549.798 1575.240 L 550.095 1569 554.366 1569 C 558.481 1569, 558.810 1569.240, 563.358 1575.563 C 567.417 1581.205, 568.459 1582.081, 570.790 1581.813 C 574.780 1581.352, 574.722 1578.194, 570.627 1573.019 L 567.167 1568.647 569.959 1566.038 C 575.422 1560.935, 574.940 1551.168, 569.053 1547.691 C 565.527 1545.608, 546.174 1545.226, 544.200 1547.200 M 550.193 1557.250 L 550.500 1561.500 555.434 1561.812 C 562.253 1562.244, 564.905 1561.380, 566.057 1558.350 C 567.663 1554.125, 565.827 1553, 557.320 1553 L 549.885 1553 550.193 1557.250" stroke="none" fill="#000000" fill-rule="evenodd"/>
</svg>